# xmcd
#
# Track frame offsets:
#	150
#	11817
#	30545
#	43250
#	53387
#	68525
#	83325
#	94837
#	106772
#	127792
#	142467
#	156692
#	170462
#	185352
#	197875
#	207550
#	221972
#	238412
#	254625
#	269807
#
# Disc length: 3763
#
# Revision: 1
# Processed by: cddbd v1.5.1PL0 Copyright (c) Steve Scherf et al.
# Submitted via: CDex 1.50
# Normalized: r0:TDELIM( - )
#
DISCID=330eb114
DTITLE=Reader's Digest - Easy-Listening Country - On The Road
DYEAR=1997
DGENRE=Country
TTITLE0=Willie Nelson - On The Road Again
TTITLE1=Alabama - Roll On (Eighteen Wheeler)
TTITLE2=Bobby Bare - Detroit City
TTITLE3=Dave Dudley - Six Days On The Road
TTITLE4=Dolly Parton - Tennessee Homesick Blues
TTITLE5=Steve Wariner - Life's Highway
TTITLE6=John Anderson - Let Somebody Else Drive
TTITLE7=Roy Clark - Thank God For Greyhound
TTITLE8=Lee Roy Parnell - On The Road
TTITLE9=Charlie Rich - Road Song
TTITLE10=Merle Haggard - Ramblin' Fever
TTITLE11=Johnny Cash - Highwayman (Waylon Jennings, Kris Kristofferson, Willie Nelson)
TTITLE12=Alabama - Take A Little Trip
TTITLE13=Waylon Jennings - I'm A Ramblin' Man
TTITLE14=Johnny Rodriquez - Ridin' My Thumb To Mexico
TTITLE15=Razzy Bailey - Midnight Hauler
TTITLE16=The Forester Sisters - Letter Home
TTITLE17=Vince Gill - Oklahoma Borderline
TTITLE18=The Nitty Gritty Dirt Band - Long Hard Road (The Sharcropper's Dream)
TTITLE19=Jerry Reed - East Bound and Down
EXTD=YEAR: 1997
EXTT0=
EXTT1=
EXTT2=
EXTT3=
EXTT4=
EXTT5=
EXTT6=
EXTT7=
EXTT8=
EXTT9=
EXTT10=
EXTT11=
EXTT12=
EXTT13=
EXTT14=
EXTT15=
EXTT16=
EXTT17=
EXTT18=
EXTT19=
PLAYORDER=
